<?xml version="1.0" encoding="UTF-8" standalone="no"?>
<svg
   xmlns:dc="http://purl.org/dc/elements/1.1/"
   xmlns:cc="http://creativecommons.org/ns#"
   xmlns:rdf="http://www.w3.org/1999/02/22-rdf-syntax-ns#"
   xmlns:svg="http://www.w3.org/2000/svg"
   xmlns="http://www.w3.org/2000/svg"
   xmlns:sodipodi="http://sodipodi.sourceforge.net/DTD/sodipodi-0.dtd"
   xmlns:inkscape="http://www.inkscape.org/namespaces/inkscape"
   width="100"
   height="100"
   viewBox="0 0 100 100"
   version="1.1"
   id="svg20"
   sodipodi:docname="background-black.svg"
   inkscape:version="0.92.2 5c3e80d, 2017-08-06">
  <sodipodi:namedview
     pagecolor="#ffffff"
     bordercolor="#666666"
     borderopacity="1"
     objecttolerance="10"
     gridtolerance="10"
     guidetolerance="10"
     inkscape:pageopacity="0"
     inkscape:pageshadow="2"
     inkscape:window-width="1920"
     inkscape:window-height="1015"
     id="namedview22"
     showgrid="false"
     inkscape:zoom="2.36"
     inkscape:cx="50"
     inkscape:cy="50"
     inkscape:window-x="0"
     inkscape:window-y="0"
     inkscape:window-maximized="1"
     inkscape:current-layer="svg20" />
  <metadata
     id="metadata26">
    <rdf:RDF>
      <cc:Work
         rdf:about="">
        <dc:format>image/svg+xml</dc:format>
        <dc:type
           rdf:resource="http://purl.org/dc/dcmitype/StillImage" />
        <dc:title></dc:title>
      </cc:Work>
    </rdf:RDF>
  </metadata>
  <defs
     id="defs24" />
  <path
     fill="#121212"
     d="M50 0c-27.614 0-50 22.385-50 49.999 0 27.615 22.386 50.001 50 50.001s50-22.386 50-50.001c0-27.614-22.386-49.999-50-49.999z"
     id="path2" />
  <path
     fill="#2a2a2a"
     d="M78.559 27.014l1.427 1.428-37.697 33.551-4.283-4.283 40.553-30.696z"
     id="path4" />
  <path
     fill="#414141"
     d="M61 76.999v6h-6v-6h-2v6h-6v-6h-2v6h-6v-6h-2v8h26v-8h-2z"
     id="path6" />
  <path
     fill="#383838"
     d="M47.031 8.094c-15.203 1.044-28.29 10.351-34.742 23.434l5.424 2.656c5.767-11.646 17.669-19.813 31.333-20.166.32-.008.636 0 .954 0v-6.014c-.983 0-1.971.021-2.969.09z"
     id="path8" />
  <path
     fill="#808080"
     d="M85.985 49.988c0 5.471-1.437 10.873-3.686 15.61-.689 1.452-.172 3.182 1.235 3.976l.054.03c1.564.882 3.537.234 4.305-1.381 2.63-5.533 4.107-11.843 4.107-18.235 0-7.042-1.743-13.672-4.807-19.5l-5.326 2.794c2.624 4.993 4.118 10.674 4.118 16.706z"
     id="path10" />
  <path
     fill="#727272"
     d="M16.407 69.613l.054-.029c1.408-.775 1.924-2.467 1.234-3.887-2.439-5.021-3.886-11.12-3.658-17.104.209-5.493 1.686-10.681 4.13-15.293l-5.356-2.81c-2.57 4.867-4.211 10.29-4.674 16.029-.619 7.668.863 15.368 3.965 21.744.767 1.578 2.74 2.213 4.305 1.35z"
     id="path12" />
  <path
     fill="#424242"
     d="M50 8.004v6.014c14.174.001 26.436 8.185 32.301 20.095l5.392-2.652c-6.847-13.899-21.151-23.454-37.693-23.457z"
     id="path14" />
  <path
     fill="#b8b8b8"
     d="M76.559 22.014l1.427 1.428-35.697 38.551-4.283-4.283 38.553-35.696z"
     id="path16" />
  <path
     fill="#d5d5d5"
     d="M50 44.999c-2.762 0-5 2.238-5 5s2.238 5 5 5 5-2.238 5-5-2.238-5-5-5z"
     id="path18" />
</svg>
